<svg id="svg261903" xmlns="http://www.w3.org/2000/svg" width="15.84mm" height="128.5mm" viewBox="0 0 44.91 364.25">
  <title>SequentialSwitch4</title>
  <path id="path227414" d="M.27.26H42.93V364H.27Z" transform="translate(1.71 0)" style="fill: #fff"/>
  <g>
    <g>
      <path d="M34.21,5.73c-4,1.12-5.56,3.34-7.06,5.49s-2.86,4.07-6.52,5.09-5.86,0-8.2-1-4.88-2.16-8.88-1.05A11.44,11.44,0,0,0,.06,15.84V17.1a10.11,10.11,0,0,1,3.75-1.88c3.67-1,5.87,0,8.21,1s4.88,2.17,8.88,1.05,5.56-3.33,7.07-5.48,2.85-4.08,6.51-5.09,5.87,0,8.21,1l.51.22V6.83l-.11,0C40.7,5.72,38.22,4.62,34.21,5.73Z" transform="translate(1.71 0)" style="fill: #ff82d2"/>
      <path d="M8.44,31.84c3.66-1,5.86,0,8.2,1s4.88,2.16,8.88,1,5.56-3.33,7.07-5.48,2.85-4.08,6.51-5.1A10,10,0,0,1,43.2,23V22a11.1,11.1,0,0,0-4.37.38c-4,1.11-5.56,3.34-7.06,5.48s-2.85,4.08-6.52,5.1-5.86,0-8.2-1-4.88-2.17-8.88-1.05S2.61,34.21,1.1,36.36c-.34.49-.67,1-1,1.43v1.55a20.72,20.72,0,0,0,1.86-2.41C3.39,34.84,4.78,32.86,8.44,31.84Z" transform="translate(1.71 0)" style="fill: #ff82d2"/>
      <path d="M6.54,53.55C8,51.46,9.4,49.48,13.06,48.46s5.86,0,8.2,1,4.88,2.16,8.88,1,5.57-3.34,7.07-5.49c1.39-2,2.73-3.86,6-4.91V39.05c-3.81,1.13-5.34,3.3-6.81,5.4s-2.85,4.08-6.51,5.09-5.87,0-8.21-1-4.88-2.16-8.88-1S7.23,50.83,5.73,53C4.38,54.9,3.08,56.71.06,57.79v1.07C3.64,57.7,5.12,55.59,6.54,53.55Z" transform="translate(1.71 0)" style="fill: #ff82d2"/>
      <path d="M4.1,75.65c4-1.11,5.56-3.33,7.07-5.48s2.85-4.08,6.51-5.09,5.87,0,8.2,1,4.88,2.16,8.88,1,5.57-3.34,7.07-5.49c.44-.63.88-1.24,1.37-1.83V58.32A19.13,19.13,0,0,0,41,61.07c-1.47,2.1-2.85,4.08-6.51,5.09s-5.87,0-8.21-1-4.87-2.16-8.88-1-5.56,3.34-7.06,5.49-2.86,4.07-6.52,5.09a10.37,10.37,0,0,1-3.77.38v1A11.28,11.28,0,0,0,4.1,75.65Z" transform="translate(1.71 0)" style="fill: #ff82d2"/>
      <path d="M8.72,92.27c4-1.11,5.56-3.33,7.07-5.48s2.85-4.08,6.51-5.1,5.87,0,8.2,1,4.88,2.17,8.89,1a11.09,11.09,0,0,0,3.81-1.82V80.63a9.8,9.8,0,0,1-4.08,2.15c-3.66,1-5.87,0-8.21-1S26,79.62,22,80.73,16.47,84.07,15,86.21s-2.85,4.08-6.51,5.1-5.87,0-8.21-1l-.19-.08v1.09C2.39,92.35,4.84,93.35,8.72,92.27Z" transform="translate(1.71 0)" style="fill: #ff82d2"/>
      <path d="M13.34,108.89c4-1.12,5.56-3.34,7.07-5.49s2.85-4.07,6.51-5.09,5.87,0,8.21,1,4.54,2,8.07,1.23v-1c-3.33.77-5.45-.14-7.67-1.12-2.39-1.07-4.87-2.16-8.88-1.05s-5.56,3.33-7.06,5.48-2.85,4.08-6.51,5.09-5.87,0-8.21-1a15.05,15.05,0,0,0-4.81-1.47v1a14.07,14.07,0,0,1,4.4,1.38C6.86,108.9,9.34,110,13.34,108.89Z" transform="translate(1.71 0)" style="fill: #ff82d2"/>
      <path d="M40.15,115c-2.39-1.07-4.87-2.17-8.88-1s-5.56,3.33-7.06,5.48l-.1.14h1.23a10.26,10.26,0,0,1,6.2-4.66c3.66-1,5.87,0,8.21,1a19,19,0,0,0,3.45,1.25v-1A19.23,19.23,0,0,1,40.15,115Z" transform="translate(1.71 0)" style="fill: #ff82d2"/>
    </g>
    <path d="M37.83,364.2c-.32,0-.65,0-1,.05h2c-.31,0-.64-.05-1-.05m-4.62-16.62a10.58,10.58,0,0,0-2.92.43,9.68,9.68,0,0,0-5.39,3.55,33.1,33.1,0,0,1-3.71,4.67,10.93,10.93,0,0,1-4.48,2.36,12,12,0,0,1-3.18.46h0a13.26,13.26,0,0,1-5.68-1.52,12.5,12.5,0,0,0-5.28-1.42,10.2,10.2,0,0,0-2.55.33v7.81H33a13.16,13.16,0,0,1,1.68-.59,12,12,0,0,1,3.18-.46h0a11.68,11.68,0,0,1,4.62,1.05h.74V350.47A15,15,0,0,1,38.49,349a12.37,12.37,0,0,0-5.28-1.43M28.59,331a11,11,0,0,0-2.92.43,9.68,9.68,0,0,0-5.39,3.55,32,32,0,0,1-3.71,4.67A10.93,10.93,0,0,1,12.09,342a12,12,0,0,1-3.18.46h0a13.4,13.4,0,0,1-5.68-1.51A18.48,18.48,0,0,0,0,339.73v15.68a11.36,11.36,0,0,1,2.54-.3h0a13.36,13.36,0,0,1,5.68,1.51,12.41,12.41,0,0,0,5.29,1.43,10.58,10.58,0,0,0,2.92-.43,9.58,9.58,0,0,0,5.39-3.55c1.18-1.48,2.08-3.2,3.71-4.66A10.82,10.82,0,0,1,30,347.05a11.66,11.66,0,0,1,3.18-.47h0a13.41,13.41,0,0,1,5.69,1.51,14.25,14.25,0,0,0,4.3,1.38V333.31l-.45.13a11.62,11.62,0,0,1-3.18.46h0a13.41,13.41,0,0,1-5.69-1.51A12.37,12.37,0,0,0,28.59,331M43.2,313.89a7.94,7.94,0,0,1-.59.57,10.69,10.69,0,0,1-4.48,2.36,11.62,11.62,0,0,1-3.18.46h0a13.45,13.45,0,0,1-5.69-1.51A12.51,12.51,0,0,0,24,314.34a11.39,11.39,0,0,0-2.92.43,9.64,9.64,0,0,0-5.39,3.56A33.19,33.19,0,0,1,12,323a10.93,10.93,0,0,1-4.48,2.36,11.62,11.62,0,0,1-3.18.46h0a11.18,11.18,0,0,1-4.27-.9v13.8A17.84,17.84,0,0,1,3.61,340a12.37,12.37,0,0,0,5.29,1.43,11,11,0,0,0,2.92-.42,9.68,9.68,0,0,0,5.39-3.55,32,32,0,0,1,3.71-4.67,10.93,10.93,0,0,1,4.48-2.36,11.66,11.66,0,0,1,3.18-.47h0a13.26,13.26,0,0,1,5.69,1.52,12.5,12.5,0,0,0,5.28,1.42,11,11,0,0,0,2.93-.42l.71-.22V313.89m0-22.28a11.09,11.09,0,0,0-1.5,1.57A33.1,33.1,0,0,1,38,297.85a10.8,10.8,0,0,1-4.48,2.36,12,12,0,0,1-3.18.46h0a13.26,13.26,0,0,1-5.69-1.52,12.5,12.5,0,0,0-5.28-1.42,10.58,10.58,0,0,0-2.92.43A9.63,9.63,0,0,0,11,301.71a32.58,32.58,0,0,1-3.72,4.66,10.6,10.6,0,0,1-4.47,2.36,12.11,12.11,0,0,1-2.85.46v14.63a10.64,10.64,0,0,0,4.28,1,11,11,0,0,0,2.92-.42,9.72,9.72,0,0,0,5.39-3.55,33.1,33.1,0,0,1,3.71-4.67,10.93,10.93,0,0,1,4.48-2.36,12,12,0,0,1,3.18-.46h0a13.41,13.41,0,0,1,5.69,1.51,12.51,12.51,0,0,0,5.28,1.43,11.52,11.52,0,0,0,2.93-.43,9.69,9.69,0,0,0,5.33-3.48V291.61m0-18.78-.73.18a9.72,9.72,0,0,0-5.39,3.55,32.54,32.54,0,0,1-3.71,4.67,10.87,10.87,0,0,1-4.48,2.36,12,12,0,0,1-3.18.46h0A13.41,13.41,0,0,1,20,282.54a12.37,12.37,0,0,0-5.28-1.43,10.7,10.7,0,0,0-2.93.43,9.65,9.65,0,0,0-5.38,3.55c-1.19,1.48-2.09,3.2-3.72,4.67A10.29,10.29,0,0,1,0,291.49v16.7a11.4,11.4,0,0,0,2.58-.42A9.67,9.67,0,0,0,8,304.22c1.18-1.48,2.08-3.2,3.71-4.66a10.76,10.76,0,0,1,4.48-2.37,12,12,0,0,1,3.18-.46h0A13.45,13.45,0,0,1,25,298.24a12.37,12.37,0,0,0,5.28,1.43,10.7,10.7,0,0,0,2.93-.43,9.59,9.59,0,0,0,5.38-3.55A33.19,33.19,0,0,1,42.34,291a10,10,0,0,1,.86-.69V272.83M40.77,256a10.58,10.58,0,0,0-2.92.43A9.58,9.58,0,0,0,32.46,260c-1.18,1.48-2.08,3.2-3.71,4.66A10.93,10.93,0,0,1,24.27,267a11.62,11.62,0,0,1-3.18.46h0a13.41,13.41,0,0,1-5.69-1.51,12.37,12.37,0,0,0-5.28-1.43,11.09,11.09,0,0,0-2.93.43,9.65,9.65,0,0,0-5.38,3.55c-.63.79-1.18,1.64-1.8,2.49v19.42a9.42,9.42,0,0,0,3.34-2.78c1.19-1.48,2.09-3.2,3.72-4.66a10.69,10.69,0,0,1,4.48-2.36,11.66,11.66,0,0,1,3.18-.47h0a13.45,13.45,0,0,1,5.69,1.51,12.37,12.37,0,0,0,5.28,1.43,10.92,10.92,0,0,0,2.92-.42A9.68,9.68,0,0,0,34,279.08a32,32,0,0,1,3.71-4.67,10.93,10.93,0,0,1,4.48-2.36c.34-.1.68-.18,1-.24V256.3a8.92,8.92,0,0,0-2.43-.33m-4.62-16.62a10.58,10.58,0,0,0-2.92.43,9.63,9.63,0,0,0-5.39,3.55c-1.18,1.48-2.08,3.2-3.71,4.66a10.82,10.82,0,0,1-4.48,2.36,11.66,11.66,0,0,1-3.18.47h0a13.26,13.26,0,0,1-5.68-1.52,12.66,12.66,0,0,0-5.28-1.43,11.14,11.14,0,0,0-2.93.44,10.91,10.91,0,0,0-2.56,1v19.88a16.25,16.25,0,0,1,2.44-2.91A10.8,10.8,0,0,1,6.92,264a11.66,11.66,0,0,1,3.18-.47h0A13.3,13.3,0,0,1,15.8,265a12.46,12.46,0,0,0,5.28,1.42A10.92,10.92,0,0,0,24,266a9.68,9.68,0,0,0,5.39-3.55,33.1,33.1,0,0,1,3.71-4.67,10.93,10.93,0,0,1,4.48-2.36,12,12,0,0,1,3.18-.46h0a9.8,9.8,0,0,1,2.43.3V241.52c-.61-.23-1.2-.49-1.77-.75a12.5,12.5,0,0,0-5.28-1.42m-4.62-16.62a11,11,0,0,0-2.92.43,9.68,9.68,0,0,0-5.39,3.55,33.1,33.1,0,0,1-3.71,4.67A10.93,10.93,0,0,1,15,233.74a12,12,0,0,1-3.18.46h0a13.26,13.26,0,0,1-5.68-1.52,12.51,12.51,0,0,0-5.29-1.42c-.27,0-.56,0-.86,0v16.92a12.43,12.43,0,0,1,2.29-.88,12,12,0,0,1,3.19-.46h0a13.36,13.36,0,0,1,5.68,1.51,12.41,12.41,0,0,0,5.29,1.43,11,11,0,0,0,2.92-.43,9.63,9.63,0,0,0,5.39-3.55c1.18-1.48,2.08-3.2,3.71-4.66A10.82,10.82,0,0,1,33,238.81a12,12,0,0,1,3.18-.46h0a13.45,13.45,0,0,1,5.69,1.51l1.36.59v-14.8l-.69,0h0a13.4,13.4,0,0,1-5.68-1.51,12.37,12.37,0,0,0-5.28-1.43M26.9,206.11a11.08,11.08,0,0,0-2.92.43,9.69,9.69,0,0,0-5.38,3.55,33.84,33.84,0,0,1-3.71,4.67,10.93,10.93,0,0,1-4.48,2.36,12,12,0,0,1-3.18.46h0a13.36,13.36,0,0,1-5.68-1.51c-.52-.23-1-.45-1.53-.65v14.87l.85,0h0a13.36,13.36,0,0,1,5.68,1.51,12.37,12.37,0,0,0,5.29,1.43,10.58,10.58,0,0,0,2.92-.43,9.63,9.63,0,0,0,5.39-3.55c1.18-1.48,2.08-3.2,3.71-4.66a10.82,10.82,0,0,1,4.48-2.36,11.66,11.66,0,0,1,3.18-.47h0a13.36,13.36,0,0,1,5.68,1.51,12.37,12.37,0,0,0,5.29,1.43l.7,0V207.8a12.83,12.83,0,0,1-2.13.79,11.62,11.62,0,0,1-3.18.46h0a13.4,13.4,0,0,1-5.68-1.51,12.37,12.37,0,0,0-5.29-1.43m16.3-19.17a15.86,15.86,0,0,1-2.27,2.67A10.82,10.82,0,0,1,36.45,192a12,12,0,0,1-3.18.46h0a13.22,13.22,0,0,1-5.68-1.52,12.66,12.66,0,0,0-5.29-1.43,11.13,11.13,0,0,0-2.92.44A9.59,9.59,0,0,0,14,193.48c-1.19,1.48-2.09,3.2-3.71,4.66a10.93,10.93,0,0,1-4.48,2.36,12,12,0,0,1-3.18.46h0A10,10,0,0,1,0,200.62v13.73c.67.24,1.31.53,1.93.8a12.37,12.37,0,0,0,5.29,1.43,10.68,10.68,0,0,0,2.92-.43,9.66,9.66,0,0,0,5.39-3.54,32,32,0,0,1,3.71-4.67,10.87,10.87,0,0,1,4.48-2.36,11.59,11.59,0,0,1,3.17-.47h0a13.22,13.22,0,0,1,5.68,1.52,12.66,12.66,0,0,0,5.29,1.43,12,12,0,0,0,5.32-1.38V186.94m0-21.31a9.61,9.61,0,0,0-3.18,2.7c-1.19,1.48-2.09,3.2-3.72,4.67a10.82,10.82,0,0,1-4.47,2.36,12.14,12.14,0,0,1-3.19.46h0A13.4,13.4,0,0,1,23,174.31a12.37,12.37,0,0,0-5.29-1.43,10.68,10.68,0,0,0-2.92.43,9.6,9.6,0,0,0-5.38,3.55c-1.19,1.48-2.09,3.2-3.72,4.66a10.71,10.71,0,0,1-4.47,2.36,11.45,11.45,0,0,1-1.17.27v15.43a9.27,9.27,0,0,0,2.6.38,11,11,0,0,0,2.92-.42A9.72,9.72,0,0,0,10.91,196a33.1,33.1,0,0,1,3.71-4.67A10.8,10.8,0,0,1,19.1,189a11.89,11.89,0,0,1,3.17-.46h0A13.36,13.36,0,0,1,28,190a12.37,12.37,0,0,0,5.29,1.43,11.08,11.08,0,0,0,2.92-.43,9.67,9.67,0,0,0,5.39-3.55c.57-.72,1.08-1.49,1.63-2.26V165.63m0-17.88a11.77,11.77,0,0,0-2.42.41,9.65,9.65,0,0,0-5.38,3.55c-1.19,1.49-2.09,3.21-3.72,4.67a10.82,10.82,0,0,1-4.47,2.36,12.14,12.14,0,0,1-3.19.46h0a13.4,13.4,0,0,1-5.68-1.51A12.37,12.37,0,0,0,13,156.26a10.68,10.68,0,0,0-2.92.43,9.65,9.65,0,0,0-5.38,3.55c-1.19,1.48-2.09,3.2-3.72,4.66a10.68,10.68,0,0,1-1,.81v17.43c.29-.06.59-.13.9-.22a9.6,9.6,0,0,0,5.38-3.55c1.19-1.48,2.09-3.2,3.72-4.66a10.72,10.72,0,0,1,4.47-2.37,12.14,12.14,0,0,1,3.19-.46h0a13.4,13.4,0,0,1,5.68,1.51,12.37,12.37,0,0,0,5.29,1.43,10.68,10.68,0,0,0,2.92-.43A9.62,9.62,0,0,0,37,170.84c1.18-1.48,2.08-3.2,3.71-4.66a10.06,10.06,0,0,1,2.54-1.66V147.75m-4.12-16.63a10.68,10.68,0,0,0-2.92.43,9.55,9.55,0,0,0-5.38,3.55c-1.19,1.48-2.09,3.2-3.72,4.66a10.82,10.82,0,0,1-4.47,2.36,11.78,11.78,0,0,1-3.19.47h0a13.36,13.36,0,0,1-5.68-1.52,12.41,12.41,0,0,0-5.29-1.43,11.08,11.08,0,0,0-2.92.43,9.65,9.65,0,0,0-5.38,3.55l-.12.15v20.69a10.7,10.7,0,0,0,1.66-1.71c1.19-1.48,2.09-3.2,3.72-4.66a10.71,10.71,0,0,1,4.47-2.36,11.78,11.78,0,0,1,3.19-.47h0a13.26,13.26,0,0,1,5.68,1.52A12.51,12.51,0,0,0,24,158.2a11,11,0,0,0,2.92-.42,9.65,9.65,0,0,0,5.38-3.55A33.35,33.35,0,0,1,36,149.56a10.82,10.82,0,0,1,4.47-2.36,12.37,12.37,0,0,1,2.69-.45V132a10.43,10.43,0,0,0-4.12-.92m-15-11.53H0v3.09l.61-.19A12,12,0,0,1,3.8,122h0a13.41,13.41,0,0,1,5.69,1.51A12.37,12.37,0,0,0,14.77,125a11.09,11.09,0,0,0,2.93-.43A9.6,9.6,0,0,0,23.08,121c.36-.45.7-.92,1-1.4m19.09,0H25.33a19.41,19.41,0,0,1-2.89,3.55A10.7,10.7,0,0,1,18,125.51a12,12,0,0,1-3.18.46h0a13.3,13.3,0,0,1-5.69-1.52A12.46,12.46,0,0,0,3.8,123a11,11,0,0,0-2.92.42c-.31.09-.6.18-.88.28v18.49a9,9,0,0,1,.76-.75,10.82,10.82,0,0,1,4.47-2.36,11.73,11.73,0,0,1,3.19-.47h0a13.26,13.26,0,0,1,5.69,1.52,12.37,12.37,0,0,0,5.29,1.43,11.08,11.08,0,0,0,2.92-.43,9.65,9.65,0,0,0,5.38-3.55c1.19-1.48,2.09-3.2,3.72-4.67a10.82,10.82,0,0,1,4.47-2.36,12.09,12.09,0,0,1,3.19-.46h0a11.06,11.06,0,0,1,4.12.84V119.59" transform="translate(1.71 0)" style="fill: #ff82d2"/>
  </g>
  <path d="M21.93,130.73" transform="translate(1.71 0)" style="fill: none;stroke: #3c3c3c;stroke-miterlimit: 10;stroke-width: 0.5px"/>
  <g>
    <path d="M5.2,18A3.63,3.63,0,0,1,8,19.32l-1,1a2.41,2.41,0,0,0-1.75-.79,2.26,2.26,0,0,0-2.3,2.28A2.24,2.24,0,0,0,5.2,24.2,2.41,2.41,0,0,0,7,23.41l1,1A3.63,3.63,0,0,1,5.2,25.71a3.69,3.69,0,0,1-3.92-3.8A3.87,3.87,0,0,1,5.2,18Zm0,7.41a3.26,3.26,0,0,0,2.41-1l-.67-.67a2.62,2.62,0,0,1-1.74.67,2.58,2.58,0,1,1,0-5.15A2.62,2.62,0,0,1,6.94,20l.67-.67a3.23,3.23,0,0,0-2.41-1,3.57,3.57,0,0,0-3.62,3.6A3.44,3.44,0,0,0,5.2,25.45ZM1.6,21.73h1v0h-1Zm0,.13h1v0h-1Zm0,.13h1v0h-1Zm0,.12h1v0h-1Zm0-.63h1l0,0h-1Zm0,.13h1v0h-1Zm0,.64h1v0h-1Zm0,.13h1v0h-1Zm0-1h1v0h-1Zm0-.12h1l0,0h-1Zm0,1.27h1v0h-1Zm0,.13h1v0h-1Zm0-1.53h1v0h-1Zm0,1.66h1v0h-1Zm0-1.8h1v0h-1Zm0,1.92H2.77v0H1.72Zm0-2h1l0,0h-1Zm0,2.17H2.81v0H1.76Zm0-2.3h1v0h-1Zm0,2.44H2.88l0,0H1.81Zm0-2.57H2.9l0,0h-1Zm0,2.69h1.1l0,0H1.85Zm0-2.81H3l0,0H1.88Zm0,2.94H3l0,0H1.9ZM2,20.33h1.1v0H1.94Zm0,3.2H3.12l0,0H2ZM2,20.2H3.16l0,0H2Zm0,3.45H3.23l0,0H2Zm.06-3.57h1.2l0,0H2.06Zm0,3.7H3.36l0,0H2.11Zm.08-3.84H3.4l0,0H2.14Zm0,4H3.51l0,0H2.19Zm.08-4.1H3.57l0,0H2.24Zm0,4.22H3.66l0,0H2.27Zm.08-4.34H3.74l0,0H2.32Zm0,4.48H3.88l.05,0H2.37Zm.09-4.61H4l0,0H2.43ZM4.18,24.3l.06,0H2.49l0,0ZM2.57,19.43H4.26l-.06,0H2.55Zm2,5,.14,0H2.61l0,0Zm-1.9-5.11h2l-.12,0H2.67Zm2.58,5.24v0H2.75l0,0ZM2.85,19.18H5.27v0H2.81Zm2.42,5.5v0H2.91l0,0ZM3,19H5.27v0H3ZM5.27,24.8v0H3.09l0,0ZM3.18,18.92H5.27v0H3.15Zm2.09,6v0h-2l0,0ZM3.41,18.79H5.27v0H3.36Zm1.86,6.26v0H3.54l-.06,0ZM3.68,18.66H5.27v0H3.62Zm1.59,6.52v0H3.86l-.06,0ZM4,18.54H5.27v0H3.9Zm1.31,6.78v0H4.35l-.11,0Zm-.85-6.91h.85v0h-1Z" transform="translate(1.71 0)" style="fill: #ff82d2"/>
    <path d="M8.51,18.28h1.56V24h3v1.48H8.51Zm4.26,7v-1h-3V18.52h-1v6.71ZM9,25.1h3.74v0H9Zm.1-.12h3.64v0H9.1Zm.12-.13h3.52v0H9.22Zm.12-.13h3.4v0H9.34Zm.12-.12h3.28v0H9.45Zm.12-.13h3.16v0H9.57Zm.12-.14h3v0H9.69Z" transform="translate(1.71 0)" style="fill: #ff82d2"/>
    <path d="M13.67,18.28h1.56v3.34l2.16-3.34h1.73L16.8,21.69l2.44,3.78H17.51l-2.28-3.62v3.62H13.67Zm1.26,7V18.52H14v6.71Zm2.77,0h1.06l-2.29-3.52,2.16-3.19H17.57l-2.1,3.23ZM15.52,21.8h1v0h-1Zm0-.13h.92l0,0h-.9Zm.06.25h1l0,0h-1Zm0-.38h.9v0h-.91Zm0,.51h1v0h-1Zm0-.63h.91v0H15.7Zm.1-.13h.91l0,0h-.92Zm0,.9h1l0,0h-1Zm.08.12h1v0h-1Zm0-1.16h.91v0h-.91Zm0,1.29h1l0,0H16ZM16,21h.91v0H16Zm0,1.53h1v0h-1Zm0-1.67H17l0,0h-.91Zm.05,1.79h1l0,0h-1Zm.05-1.92h.91v0h-.93Zm0,2.05h1v0h-1Zm0-2.17h.92v0h-.92Zm.05,2.3h1l0,0h-1Zm0-2.43h.93l0,0H16.3Zm1,2.55,0,0h-1l0,0Zm-.93-2.68h.92v0h-.94Zm1,2.82,0,0h-1l0,0Zm-.95-2.94h.94l0,0h-.93Zm1,3.07,0,0h-1l0,0Zm-1-3.2h1l0,0h-.94Zm0,3.32h1v0h-1Zm0-3.46h1l0,0h-.94Zm0,3.59h1v0h-1Zm.05-3.71h.95v0h-1Zm1,3.84,0,0h-1v0Zm-.94-4h1l0,0h-1Zm1,4.09,0,0h-1l0,0Zm-.94-4.22h1v0h-1Zm1,4.35,0,0H17l0,0ZM17,19.5h1v0H17Zm1,4.61,0,0H17l0,0Zm-.94-4.74h1l0,0H17Zm1,4.86v0h-1v0Zm-.95-5h1v0h-1Zm1,5.12v0h-1v0Zm-1-5.24h1l0,0h-1Zm1,5.37v0h-1v0Zm-1-5.51h1v0h-1Zm1,5.63,0,0h-1l0,0Zm-.95-5.76h1l0,0h-1Zm1,5.89,0,0h-1l0,0Zm-.95-6h1l0,0h-1Zm1,6.14v0h-1v0Zm-.95-6.27h1l0,0h-1Zm1,6.39,0,0h-1l0,0Zm.08.13,0,0h-1l0,0Z" transform="translate(1.71 0)" style="fill: #ff82d2"/>
  </g>
  <g>
    <path d="M25.61,52.64h2.82A2.29,2.29,0,0,1,30.81,55,2,2,0,0,1,29.09,57v0L31,59.84H29.13L27.27,57h-.1v2.86H25.61Zm1.26,7V56.8h.55l1.89,2.8h1.17l-1.84-2.8h.09a1.7,1.7,0,0,0,1.78-1.89,2,2,0,0,0-2.08-2H25.91V59.6Zm0-6.63H29L29,53H26.87Zm0,.13h2.47l.05,0H26.87Zm0,.12h2.7l0,0H26.87Zm0,.13h2.89l0,0H26.87Zm0,.13h3l0,0H26.87Zm0,.12H30v0H26.87Zm0,.13h3.25l0,0H26.87Zm0,.14h3.34l0,0H26.87Zm0,.1h1.68a.92.92,0,0,1,1,.88.9.9,0,0,1-1,.95H26.87Zm0,1.93h3.41v0h-3.4Zm0,.14h3.34l0,0H26.87Zm0,.13H30.1v0H26.87Zm0,.12H30l0,0H26.87Zm0,.13h3l0,0h-3Zm0,.13h2.8l-.05,0H26.87Zm0,.12h2.52l-.06,0H26.87Zm1.68-1.08a.66.66,0,0,0,.72-.72.65.65,0,0,0-.72-.67H27.17v1.39ZM27.46,56.8H28.6l0,0H27.47Zm.08.14H28.7v0H27.57Zm.09.12h1.14l0,0H27.65Zm.09.13h1.14l0,0H27.74Zm1.23.13,0,0H27.83l0,0Zm.08.12v0H27.92l0,0Zm-1,.13h1.13v0H28Zm1.21.13v0H28.1l0,0Zm.08.12v0H28.18l0,0Zm-1,.14h1.12v0H28.26Zm1.2.13v0h-1.1l0,0Zm-1,.12h1.1l0,0H28.43Zm1.19.13,0,0h-1.1l0,0Zm.09.13v0h-1.1v0Zm.08.12v0H28.7l0,0Zm-.87-2.81h1.42l0,0H28.76Zm.95,2.94,0,0h-1.1v0Zm.1.13v0H28.88l0,0ZM30.28,54v0H29l-.09,0ZM30,59v0H29v0Zm.08.14v0H29v0Zm.09.13v0h-1.1l0,0Zm-1-3.59h1.17l0,0h-1.2Zm1.08,3.71v0H29.2l0,0Zm.05-5.24v0H29.22l0,0Zm0,5.37v0H29.28l0,0Zm-1-4h1v0H29.34Zm0-1.27h1v0h-1Zm.09,1.15h1v0h-1Zm0-1h1v0h-1Zm.07.9h.94v0h-.95Zm0-.77h.93v0h-.91Zm0,.64h.91v0h-.91Zm0-.51h.9v0h-.9Zm0,.12h.89v0h-.89Zm0,.27h.9v0h-.9Zm0-.13h.89v0h-.89Z" transform="translate(1.71 0)" style="fill: #ff82d2"/>
    <path d="M33,57.8a.78.78,0,0,0,.78.76.7.7,0,0,0,.73-.68c0-.66-.74-.8-1.36-1a2.1,2.1,0,0,1-1.67-2.18,2.28,2.28,0,1,1,4.55,0H34.48a.75.75,0,0,0-.76-.75.68.68,0,0,0-.72.71c0,.57.59.76,1.2.94a2.12,2.12,0,0,1,1.8,2.2,2.3,2.3,0,0,1-2.28,2.3,2.27,2.27,0,0,1-2.27-2.28Zm.75,2a2,2,0,0,0,2-2.06,1.86,1.86,0,0,0-1.57-2c-.8-.22-1.41-.42-1.41-1.17a.93.93,0,0,1,1-1,1,1,0,0,1,1,.75h1a2,2,0,0,0-2-1.8,2.08,2.08,0,0,0-2,2.08,1.89,1.89,0,0,0,1.57,1.93c.72.2,1.49.44,1.49,1.23a.93.93,0,0,1-1,.91,1,1,0,0,1-1-.75h-1A2,2,0,0,0,33.72,59.84Zm-2-5.28h1v0h-1Zm0,.13h1v0h-1Zm0,.14h1v0h-1Zm0-.39h1v0h-1Zm0,.51h1v0h-1Zm0,.13h1v0h-1Zm0-.77h1v0h-1Zm0,.9h1.08l0,0h-1.1Zm0-1h1v0h-1Zm0,1.15H33l0,0H31.81Zm0-1.27h1l0,0h-1Zm0,1.4h1.28l0,0H31.85Zm0-1.53H33l0,0H31.87Zm0,1.66h1.46l.06,0H31.91Zm0-1.8h1.23l0,0H31.93Zm0,1.92h1.73l.07,0H32Zm0-2h1.53l-.13,0H32Zm0,2.17h2.12l.07,0H32.06Zm.05-2.3h1.63v0H32.07ZM32.15,56h2.39l.05,0H32.17Zm0-2.57h1.53v0H32.18Zm.08,2.69h2.51l0,0H32.3Zm0-2.81h1.42v0H32.29Zm.13-.13h1.29v0H32.41Zm0,3.07H35l0,0H32.46Zm.18-3.2h1.11v0H32.57Zm0,3.33h2.51l0,0H32.68Zm.17-3.45h.92v0h-1Zm2.46,3.57,0,0H32.93l-.06,0ZM33.1,52.77h.62v0H33Zm2.26,3.84,0,0H33.32l0,0h2.08Zm.08.13v0h-1.7l-.07,0Zm-1.72,2.17h1.62l0,0h-1.6Zm0,.14h1.53v0H33.72Zm0,.12h1.43l0,0H33.72Zm0,.13H35l0,0H33.72Zm0,.12h1.16l0,0H33.72Zm0,.13h1l0,0h-.92Zm0,.13h.69l-.06,0h-.63Zm.33-.9h1.37l0,0H33.92Zm1.45-1.92v0H34.06l-.06,0Zm.06.14v0H34.3l0,0Zm-1.22,1.66h1.14l0,0H34.3Zm1.26-1.53v0H34.47l0,0Zm-1.08,1.4h1l0,0h-1Zm1.11-1.28v0H34.58l0,0Zm-1,1.15h1v0h-1Zm0-1h1v0h-1Zm.05.9h.92v0h-.93Zm0-.77h1v0h-1Zm0,.64h.9v0h-.91Zm0-.52h.94v0h-.92Zm0,.13h.91v0h-.91Zm0,.26h.9v0h-.9Zm0-.12h.89v0h-.89Z" transform="translate(1.71 0)" style="fill: #ff82d2"/>
    <path d="M38,54.13H36.46V52.64h4.68v1.49H39.58v5.71H38Zm1.26,5.47V53.89h1.56v-1H36.76v1h1.56V59.6ZM36.79,53h4v0h-4Zm0,.13h4v0h-4Zm0,.12h4v0h-4Zm0,.13h4v0h-4Zm0,.14h4v0h-4Zm0,.12h4v0h-4Zm0,.13h4v0h-4Z" transform="translate(1.71 0)" style="fill: #ff82d2"/>
  </g>
  <g>
    <path d="M7.1,93.7H8.66v7.2H7.1Zm1.26,7V93.94h-1v6.72ZM7.43,94h.91v0H7.43Zm0,.14h.91v0H7.43Zm0,.12h.91v0H7.43Zm0,.13h.91v0H7.43Zm0,.13h.91v0H7.43Zm0,.12h.91v0H7.43Zm0,.13h.91v0H7.43Zm0,.13h.91v0H7.43Zm0,.12h.91v0H7.43Zm0,.14h.91v0H7.43Zm0,.13h.91v0H7.43Zm0,.12h.91v0H7.43Zm0,.13h.91v0H7.43Zm0,.13h.91v0H7.43Zm0,.12h.91v0H7.43Zm0,.13h.91v0H7.43Zm0,.13h.91v0H7.43Zm0,.12h.91v0H7.43Zm0,.14h.91v0H7.43Zm0,.13h.91v0H7.43Zm0,.12h.91v0H7.43Zm0,.13h.91v0H7.43Zm0,.13h.91v0H7.43Zm0,.12h.91v0H7.43Zm0,.13h.91v0H7.43Zm0,.14h.91v0H7.43Zm0,.12h.91v0H7.43Zm0,.13h.91v0H7.43Zm0,.13h.91v0H7.43Z" transform="translate(1.71 0)" style="fill: #ff82d2"/>
    <path d="M9.5,93.7h1.56l2.39,3.69c.16.24.43.68.5.81h0c0-.22,0-.64,0-1.08V93.7H15.5v7.2H13.94l-2.38-3.69c-.17-.26-.39-.6-.51-.8h0c0,.16,0,.59,0,.94v3.55H9.5Zm1.26,7V95.5l3.36,5.16H15.2V93.94h-1v5.14l-3.36-5.14H9.8v6.72ZM9.83,94h1.08l0,0H9.83Zm.08.14H11l0,0H9.94Zm.09.12h1.08l0,0H10Zm.08.13h1.09v0H10.1Zm.08.13h1.1l0,0H10.19Zm.09.12h1.09v0H10.26Zm.08.13H11.4l0,0H10.36Zm.09.13H11.5v0H10.44Zm.08.12h1.07l0,0H10.51Zm.08.14h1.08l0,0H10.61Zm.09.13h1.08l0,0H10.69Zm.07.12h1.09v0H10.76Zm.1.13h1.08l0,0H10.85Zm.08.13H12v0H10.94Zm.08.12h1.08l0,0H11Zm.09.13h1.09v0H11.11Zm.09.13h1.07v0H11.2Zm.08.12h1.06l0,0H11.28Zm.09.14h1.06l0,0H11.36Zm.09.13h1.05l0,0H11.46Zm.08.12h1.06v0H11.53Zm.08.13h1.06v0h-1Zm.1.13h1v0h-1Zm.07.12h1l0,0h-1Zm.1.13h1l0,0h-1Zm.08.14h1l0,0H12Zm.09.12h1v0h-1Zm.08.13h1v0h-1Zm.08.13h1.05v0h-1Zm1.12.12,0,0h-1l0,0Zm.08.13,0,0h-1l0,0Zm.09.13,0,0h-1l0,0Zm-1,.12h1v0h-1Zm.08.14h1.06v0H12.62Zm.08.13h1.06v0h-1Zm1.13.12,0,0H12.79l0,0Zm.09.13,0,0h-1l0,0Zm.08.13,0,0H13l0,0Zm-1,.12h1.07v0H13Zm1.14.13,0,0H13.11v0Zm.08.13,0,0H13.2v0Zm.1.12v0H13.28l0,0Zm.08.14v0H13.37l0,0Zm.09.13v0H13.45l0,0Zm.08.12v0H13.52v0Zm.08.13,0,0H13.61l0,0Zm.09.13,0,0H13.69v0Zm.08.12v0H13.77l0,0Zm.09.13,0,0H13.86l0,0Zm.08.14,0,0h-1.1v0Zm.08.12,0,0H14l0,0Zm.09.13v0H14.1l0,0Z" transform="translate(1.71 0)" style="fill: #ff82d2"/>
  </g>
  <path d="M-1.71,18.43H.06V16.57A11.06,11.06,0,0,0-1.71,18.43Z" transform="translate(1.71 0)" style="fill: none"/>
  <path d="M16.28.13,16.69,0h-7A10.61,10.61,0,0,0,16.28.13Z" transform="translate(1.71 0)" style="fill: #ffc88d"/>
</svg>
