<svg xmlns="http://www.w3.org/2000/svg" width="300" height="380" viewBox="0 0 300 380">
  <title>Storm</title>
  <g id="background">
    <rect width="300" height="380" style="fill: #caddf3"/>
    <g>
      <path d="M95.4,55.27,89.07,26.35a.54.54,0,0,0-1,0L81.7,55.27a.5.5,0,0,0,.52.58H94.88A.5.5,0,0,0,95.4,55.27Zm-3.63-6H85.32a.07.07,0,0,1-.07-.08L88.48,34.5c0-.07.12-.07.14,0l3.22,14.74A.07.07,0,0,1,91.77,49.32Z" transform="translate(0 0)" style="fill: #8cdbf1;stroke: #000;stroke-miterlimit: 10;stroke-width: 0.75px"/>
      <rect x="79.38" y="32.55" width="3.08" height="5.52" rx="0.51" ry="0.51" transform="translate(-7.08 42.41) rotate(-28.19)"/>
      <path d="M89,49.14l-9.38-17.5a.56.56,0,0,0-.75-.23.55.55,0,0,0-.22.74l9.1,17Z" transform="translate(0 0)"/>
    </g>
  </g>
  <g id="boxes">
    <rect x="247.77" y="90" width="44.73" height="230" rx="12" ry="12" style="fill: none;stroke: #000;stroke-miterlimit: 10;stroke-width: 3px"/>
    <rect x="15" y="15" width="60" height="30" rx="12" ry="12" style="fill: none;stroke: #000;stroke-miterlimit: 10;stroke-width: 2px"/>
    <rect x="135" y="15" width="150" height="52.5" rx="12" ry="12" style="fill: none;stroke: #000;stroke-miterlimit: 10;stroke-width: 2px"/>
  </g>
  <g id="blobs">
    <circle cx="268.5" cy="41.25" r="13.5" style="fill: #ffab52"/>
    <rect x="225" y="27.75" width="27" height="27" style="fill: #8cdbf1"/>
    <circle cx="208.5" cy="41.25" r="13.5" style="fill: #fa41b6"/>
    <path d="M60,39.78a9.6,9.6,0,1,1,9.6-9.6A9.61,9.61,0,0,1,60,39.78Z" transform="translate(0 0)" style="fill: #ffda7e"/>
    <rect x="165" y="27.75" width="27" height="27" style="fill: #00c0aa"/>
    <circle cx="281.79" cy="117.5" r="3.22" style="fill: none;stroke: #000;stroke-miterlimit: 10"/>
    <circle cx="281.79" cy="177.5" r="3.22" style="fill: none;stroke: #000;stroke-miterlimit: 10"/>
    <circle cx="281.79" cy="237.5" r="3.22" style="fill: none;stroke: #000;stroke-miterlimit: 10"/>
    <circle cx="281.79" cy="297.5" r="3.22" style="fill: none;stroke: #000;stroke-miterlimit: 10"/>
    <circle cx="217.5" cy="362.58" r="3.22" style="fill: none;stroke: #000;stroke-miterlimit: 10"/>
    <circle cx="157.5" cy="362.58" r="3.22" style="fill: none;stroke: #000;stroke-miterlimit: 10"/>
    <circle cx="97.5" cy="362.58" r="3.22" style="fill: none;stroke: #000;stroke-miterlimit: 10"/>
    <circle cx="37.5" cy="362.58" r="3.22" style="fill: none;stroke: #000;stroke-miterlimit: 10"/>
    <g>
      <g>
        <g>
          <circle cx="13.55" cy="102.55" r="3.55" style="fill: none;stroke: #000;stroke-miterlimit: 10;stroke-width: 0.75px"/>
          <circle cx="34.55" cy="88.55" r="3.55" style="fill: none;stroke: #000;stroke-miterlimit: 10;stroke-width: 0.75px"/>
          <circle cx="26.05" cy="90.55" r="3.55" style="fill: none;stroke: #000;stroke-miterlimit: 10;stroke-width: 0.75px"/>
          <circle cx="18.55" cy="95.55" r="3.55" style="fill: none;stroke: #000;stroke-miterlimit: 10;stroke-width: 0.75px"/>
        </g>
        <g>
          <circle cx="73.55" cy="102.55" r="3.55" style="fill: none;stroke: #000;stroke-miterlimit: 10;stroke-width: 0.75px"/>
          <circle cx="94.55" cy="88.55" r="3.55" style="fill: none;stroke: #000;stroke-miterlimit: 10;stroke-width: 0.75px"/>
          <circle cx="86.05" cy="90.55" r="3.55" style="fill: none;stroke: #000;stroke-miterlimit: 10;stroke-width: 0.75px"/>
          <circle cx="78.55" cy="95.55" r="3.55" style="fill: none;stroke: #000;stroke-miterlimit: 10;stroke-width: 0.75px"/>
        </g>
        <g>
          <circle cx="133.55" cy="102.55" r="3.55" style="fill: none;stroke: #000;stroke-miterlimit: 10;stroke-width: 0.75px"/>
          <circle cx="154.55" cy="88.55" r="3.55" style="fill: none;stroke: #000;stroke-miterlimit: 10;stroke-width: 0.75px"/>
          <circle cx="146.05" cy="90.55" r="3.55" style="fill: none;stroke: #000;stroke-miterlimit: 10;stroke-width: 0.75px"/>
          <circle cx="138.55" cy="95.55" r="3.55" style="fill: none;stroke: #000;stroke-miterlimit: 10;stroke-width: 0.75px"/>
        </g>
        <g>
          <circle cx="193.55" cy="102.55" r="3.55" style="fill: none;stroke: #000;stroke-miterlimit: 10;stroke-width: 0.75px"/>
          <circle cx="214.55" cy="88.55" r="3.55" style="fill: none;stroke: #000;stroke-miterlimit: 10;stroke-width: 0.75px"/>
          <circle cx="206.05" cy="90.55" r="3.55" style="fill: none;stroke: #000;stroke-miterlimit: 10;stroke-width: 0.75px"/>
          <circle cx="198.55" cy="95.55" r="3.55" style="fill: none;stroke: #000;stroke-miterlimit: 10;stroke-width: 0.75px"/>
        </g>
      </g>
      <g>
        <g>
          <circle cx="13.55" cy="162.55" r="3.55" style="fill: none;stroke: #000;stroke-miterlimit: 10;stroke-width: 0.75px"/>
          <circle cx="34.55" cy="148.55" r="3.55" style="fill: none;stroke: #000;stroke-miterlimit: 10;stroke-width: 0.75px"/>
          <circle cx="26.05" cy="150.55" r="3.55" style="fill: none;stroke: #000;stroke-miterlimit: 10;stroke-width: 0.75px"/>
          <circle cx="18.55" cy="155.55" r="3.55" style="fill: none;stroke: #000;stroke-miterlimit: 10;stroke-width: 0.75px"/>
        </g>
        <g>
          <circle cx="73.55" cy="162.55" r="3.55" style="fill: none;stroke: #000;stroke-miterlimit: 10;stroke-width: 0.75px"/>
          <circle cx="94.55" cy="148.55" r="3.55" style="fill: none;stroke: #000;stroke-miterlimit: 10;stroke-width: 0.75px"/>
          <circle cx="86.05" cy="150.55" r="3.55" style="fill: none;stroke: #000;stroke-miterlimit: 10;stroke-width: 0.75px"/>
          <circle cx="78.55" cy="155.55" r="3.55" style="fill: none;stroke: #000;stroke-miterlimit: 10;stroke-width: 0.75px"/>
        </g>
        <g>
          <circle cx="133.55" cy="162.55" r="3.55" style="fill: none;stroke: #000;stroke-miterlimit: 10;stroke-width: 0.75px"/>
          <circle cx="154.55" cy="148.55" r="3.55" style="fill: none;stroke: #000;stroke-miterlimit: 10;stroke-width: 0.75px"/>
          <circle cx="146.05" cy="150.55" r="3.55" style="fill: none;stroke: #000;stroke-miterlimit: 10;stroke-width: 0.75px"/>
          <circle cx="138.55" cy="155.55" r="3.55" style="fill: none;stroke: #000;stroke-miterlimit: 10;stroke-width: 0.75px"/>
        </g>
        <g>
          <circle cx="193.55" cy="162.55" r="3.55" style="fill: none;stroke: #000;stroke-miterlimit: 10;stroke-width: 0.75px"/>
          <circle cx="214.55" cy="148.55" r="3.55" style="fill: none;stroke: #000;stroke-miterlimit: 10;stroke-width: 0.75px"/>
          <circle cx="206.05" cy="150.55" r="3.55" style="fill: none;stroke: #000;stroke-miterlimit: 10;stroke-width: 0.75px"/>
          <circle cx="198.55" cy="155.55" r="3.55" style="fill: none;stroke: #000;stroke-miterlimit: 10;stroke-width: 0.75px"/>
        </g>
      </g>
      <g>
        <g>
          <circle cx="13.55" cy="222.55" r="3.55" style="fill: none;stroke: #000;stroke-miterlimit: 10;stroke-width: 0.75px"/>
          <circle cx="34.55" cy="208.55" r="3.55" style="fill: none;stroke: #000;stroke-miterlimit: 10;stroke-width: 0.75px"/>
          <circle cx="26.05" cy="210.55" r="3.55" style="fill: none;stroke: #000;stroke-miterlimit: 10;stroke-width: 0.75px"/>
          <circle cx="18.55" cy="215.55" r="3.55" style="fill: none;stroke: #000;stroke-miterlimit: 10;stroke-width: 0.75px"/>
        </g>
        <g>
          <circle cx="73.55" cy="222.55" r="3.55" style="fill: none;stroke: #000;stroke-miterlimit: 10;stroke-width: 0.75px"/>
          <circle cx="94.55" cy="208.55" r="3.55" style="fill: none;stroke: #000;stroke-miterlimit: 10;stroke-width: 0.75px"/>
          <circle cx="86.05" cy="210.55" r="3.55" style="fill: none;stroke: #000;stroke-miterlimit: 10;stroke-width: 0.75px"/>
          <circle cx="78.55" cy="215.55" r="3.55" style="fill: none;stroke: #000;stroke-miterlimit: 10;stroke-width: 0.75px"/>
        </g>
        <g>
          <circle cx="133.55" cy="222.55" r="3.55" style="fill: none;stroke: #000;stroke-miterlimit: 10;stroke-width: 0.75px"/>
          <circle cx="154.55" cy="208.55" r="3.55" style="fill: none;stroke: #000;stroke-miterlimit: 10;stroke-width: 0.75px"/>
          <circle cx="146.05" cy="210.55" r="3.55" style="fill: none;stroke: #000;stroke-miterlimit: 10;stroke-width: 0.75px"/>
          <circle cx="138.55" cy="215.55" r="3.55" style="fill: none;stroke: #000;stroke-miterlimit: 10;stroke-width: 0.75px"/>
        </g>
        <g>
          <circle cx="193.55" cy="222.55" r="3.55" style="fill: none;stroke: #000;stroke-miterlimit: 10;stroke-width: 0.75px"/>
          <circle cx="214.55" cy="208.55" r="3.55" style="fill: none;stroke: #000;stroke-miterlimit: 10;stroke-width: 0.75px"/>
          <circle cx="206.05" cy="210.55" r="3.55" style="fill: none;stroke: #000;stroke-miterlimit: 10;stroke-width: 0.75px"/>
          <circle cx="198.55" cy="215.55" r="3.55" style="fill: none;stroke: #000;stroke-miterlimit: 10;stroke-width: 0.75px"/>
        </g>
      </g>
      <g>
        <g>
          <circle cx="13.55" cy="282.55" r="3.55" style="fill: none;stroke: #000;stroke-miterlimit: 10;stroke-width: 0.75px"/>
          <circle cx="34.55" cy="268.55" r="3.55" style="fill: none;stroke: #000;stroke-miterlimit: 10;stroke-width: 0.75px"/>
          <circle cx="26.05" cy="270.55" r="3.55" style="fill: none;stroke: #000;stroke-miterlimit: 10;stroke-width: 0.75px"/>
          <circle cx="18.55" cy="275.55" r="3.55" style="fill: none;stroke: #000;stroke-miterlimit: 10;stroke-width: 0.75px"/>
        </g>
        <g>
          <circle cx="73.55" cy="282.55" r="3.55" style="fill: none;stroke: #000;stroke-miterlimit: 10;stroke-width: 0.75px"/>
          <circle cx="94.55" cy="268.55" r="3.55" style="fill: none;stroke: #000;stroke-miterlimit: 10;stroke-width: 0.75px"/>
          <circle cx="86.05" cy="270.55" r="3.55" style="fill: none;stroke: #000;stroke-miterlimit: 10;stroke-width: 0.75px"/>
          <circle cx="78.55" cy="275.55" r="3.55" style="fill: none;stroke: #000;stroke-miterlimit: 10;stroke-width: 0.75px"/>
        </g>
        <g>
          <circle cx="133.55" cy="282.55" r="3.55" style="fill: none;stroke: #000;stroke-miterlimit: 10;stroke-width: 0.75px"/>
          <circle cx="154.55" cy="268.55" r="3.55" style="fill: none;stroke: #000;stroke-miterlimit: 10;stroke-width: 0.75px"/>
          <circle cx="146.05" cy="270.55" r="3.55" style="fill: none;stroke: #000;stroke-miterlimit: 10;stroke-width: 0.75px"/>
          <circle cx="138.55" cy="275.55" r="3.55" style="fill: none;stroke: #000;stroke-miterlimit: 10;stroke-width: 0.75px"/>
        </g>
        <g>
          <circle cx="193.55" cy="282.55" r="3.55" style="fill: none;stroke: #000;stroke-miterlimit: 10;stroke-width: 0.75px"/>
          <circle cx="214.55" cy="268.55" r="3.55" style="fill: none;stroke: #000;stroke-miterlimit: 10;stroke-width: 0.75px"/>
          <circle cx="206.05" cy="270.55" r="3.55" style="fill: none;stroke: #000;stroke-miterlimit: 10;stroke-width: 0.75px"/>
          <circle cx="198.55" cy="275.55" r="3.55" style="fill: none;stroke: #000;stroke-miterlimit: 10;stroke-width: 0.75px"/>
        </g>
      </g>
    </g>
  </g>
  <g id="icons">
    <g>
      <path d="M60,38.06a7.88,7.88,0,1,1,3.72-14.84A7.88,7.88,0,0,1,60,38.06Zm0-15.19a7.31,7.31,0,1,0,6.44,10.75A7.31,7.31,0,0,0,60,22.87Z" transform="translate(0 0)"/>
      <path d="M60,39.78a9.6,9.6,0,1,1,9.6-9.6A9.61,9.61,0,0,1,60,39.78Zm0-18.63a9,9,0,1,0,9,9A9,9,0,0,0,60,21.15Z" transform="translate(0 0)"/>
      <rect x="59.71" y="22.58" width="0.58" height="1.67"/>
      <rect x="65.92" y="29.89" width="1.67" height="0.58"/>
      <rect x="59.71" y="36.1" width="0.58" height="1.67"/>
      <rect x="52.4" y="29.89" width="1.67" height="0.58"/>
      <rect x="53.75" y="26.16" width="0.58" height="1.67" transform="translate(4.79 61.98) rotate(-61.94)"/>
      <rect x="62.34" y="23.93" width="1.67" height="0.58" transform="translate(12.09 68.58) rotate(-61.94)"/>
      <rect x="65.68" y="32.52" width="0.58" height="1.67" transform="translate(5.5 75.87) rotate(-61.94)"/>
      <rect x="55.98" y="35.85" width="1.67" height="0.58" transform="translate(-1.8 69.28) rotate(-61.94)"/>
      <rect x="64.91" y="26.33" width="1.67" height="0.58" transform="translate(-4.16 38.63) rotate(-31.79)"/>
      <rect x="63.27" y="35.09" width="0.58" height="1.67" transform="translate(-9.39 38.86) rotate(-31.78)"/>
      <rect x="53.42" y="33.45" width="1.67" height="0.58" transform="translate(-9.63 33.63) rotate(-31.78)"/>
      <rect x="56.15" y="23.6" width="0.58" height="1.67" transform="translate(-4.4 33.39) rotate(-31.78)"/>
      <polygon points="60.23 30.72 59.77 30.27 57.83 28.41 58.28 27.93 60.07 29.64 62.16 25.79 62.74 26.11 60.23 30.72"/>
    </g>
    <path d="M64.48,55.72V52.9a3.71,3.71,0,0,0-3.71-3.71H58.89a3.71,3.71,0,0,0-3.7,3.71v2.82a3.68,3.68,0,0,0-2.13,3.34v6.16a3.7,3.7,0,0,0,3.69,3.69h6.17a3.7,3.7,0,0,0,3.69-3.69V59.06A3.7,3.7,0,0,0,64.48,55.72Zm-5.59-4.06h1.88A1.24,1.24,0,0,1,62,52.9v2.46H57.66V52.9A1.23,1.23,0,0,1,58.89,51.66ZM61,62.14v2.77a.7.7,0,0,1-.71.7h-.81a.7.7,0,0,1-.71-.7V62.14a2,2,0,1,1,2.23,0Z" transform="translate(0 0)" style="fill: #5cff59"/>
    <g>
      <g>
        <g>
          <polygon points="250 48.61 236.65 48.61 236.65 34.72 231.93 34.72 231.93 48.61 227 48.61 227 47.78 231.09 47.78 231.09 33.89 237.48 33.89 237.48 47.78 250 47.78 250 48.61"/>
          <g>
            <rect x="247.35" y="44.28" width="0.42" height="0.73"/>
            <rect x="247.35" y="45.59" width="0.42" height="0.73"/>
            <rect x="247.35" y="46.9" width="0.42" height="0.73"/>
            <rect x="247.35" y="40.35" width="0.42" height="0.73"/>
            <rect x="247.35" y="41.66" width="0.42" height="0.73"/>
            <rect x="247.35" y="42.96" width="0.42" height="0.73"/>
            <rect x="247.35" y="36.41" width="0.42" height="0.73"/>
            <rect x="247.35" y="37.72" width="0.42" height="0.73"/>
            <rect x="247.35" y="39.03" width="0.42" height="0.73"/>
            <g>
              <rect x="241.88" y="33.89" width="0.71" height="0.42"/>
              <rect x="243.15" y="33.89" width="0.71" height="0.42"/>
              <rect x="244.42" y="33.89" width="0.71" height="0.42"/>
              <rect x="238.06" y="33.89" width="0.71" height="0.42"/>
              <rect x="239.33" y="33.89" width="0.71" height="0.42"/>
              <rect x="240.6" y="33.89" width="0.71" height="0.42"/>
            </g>
            <g>
              <rect x="247.35" y="35.14" width="0.42" height="0.69"/>
              <polygon points="247.77 33.89 247.77 34.58 247.35 34.58 247.35 34.3 247.07 34.3 247.07 33.89 247.77 33.89" style="fill-rule: evenodd"/>
            </g>
            <rect x="245.73" y="33.89" width="0.69" height="0.42"/>
          </g>
          <polygon points="245.43 40.44 244.91 39.91 246.14 38.69 244.91 37.46 245.43 36.94 247.18 38.69 245.43 40.44"/>
          <polygon points="239.18 36.94 239.7 37.46 238.47 38.69 239.7 39.91 239.18 40.44 237.43 38.69 239.18 36.94"/>
          <rect x="238" y="38.22" width="8.66" height="0.94" transform="translate(484.67 77.37) rotate(180)"/>
        </g>
        <rect x="225" y="27.75" width="27" height="27" style="fill: none;stroke: #000;stroke-miterlimit: 10"/>
        <rect x="227" y="29.75" width="23" height="23" style="fill: none;stroke: #000;stroke-miterlimit: 10"/>
      </g>
      <g>
        <g>
          <g>
            <g style="isolation: isolate">
              <path d="M204.82,42.41c-.16-.19-.56-.12-.9.18s-.47.66-.31.85.57.13.91-.15.48-.68.3-.88m6.24-5.15c-.47-.55-1.6-.66-3,.41l.38.44c.87-.64,1.59-.61,1.91-.23s.28,1.13-.52,1.82a2.43,2.43,0,0,1-1.5.6l-.47,0a3,3,0,0,0-2,.78l-.19.16.38.44.07-.06a2.23,2.23,0,0,1,1.49-.58l.61,0a3.31,3.31,0,0,0,2-.87c1.21-1,1.45-2.22.87-2.9" transform="translate(0 0)"/>
            </g>
            <g>
              <path d="M203,45.29a2.18,2.18,0,0,1-1.88-.76c-1-1.48.89-4.53,4.36-6.94a14.27,14.27,0,0,1,4.81-2.27c1.55-.35,2.7-.14,3.21.6h0c1,1.48-.88,4.53-4.35,6.94A12,12,0,0,1,203,45.29Zm8.63-9.6a5.86,5.86,0,0,0-1.23.15A13.81,13.81,0,0,0,205.81,38c-3.44,2.39-5,5.13-4.23,6.19s3.84.59,7.28-1.8,5-5.13,4.22-6.19A1.66,1.66,0,0,0,211.65,35.69Z" transform="translate(0 0)"/>
              <path d="M202.84,46.28a3.11,3.11,0,0,1-2.71-1.14c-1.36-2,.69-5.66,4.68-8.43a14.43,14.43,0,0,1,5.65-2.47c1.84-.31,3.22,0,3.89,1s.53,2.38-.4,4a14.4,14.4,0,0,1-4.28,4.43A12.91,12.91,0,0,1,202.84,46.28Zm8.82-11.61a6.44,6.44,0,0,0-1.11.1,13.84,13.84,0,0,0-5.43,2.38c-3.62,2.51-5.7,6-4.55,7.69s5.17.93,8.79-1.59A14,14,0,0,0,213.49,39c.81-1.42,1-2.64.42-3.43h0A2.59,2.59,0,0,0,211.66,34.67Z" transform="translate(0 0)"/>
              <path d="M204.37,48.48a3.14,3.14,0,0,1-2.71-1.13l.44-.31c1.15,1.65,5.18.93,8.79-1.58A13.92,13.92,0,0,0,215,41.2c.82-1.43,1-2.65.42-3.43l.44-.31c.67,1,.53,2.39-.4,4a14.53,14.53,0,0,1-4.28,4.44A12.94,12.94,0,0,1,204.37,48.48Z" transform="translate(0 0)"/>
              <rect x="200.85" y="44.75" width="0.54" height="2.68" transform="translate(9.67 123.04) rotate(-34.81)"/>
              <rect x="214.63" y="35.17" width="0.54" height="2.68" transform="translate(17.6 129.19) rotate(-34.8)"/>
              <rect x="203.12" y="45.76" width="0.54" height="2.68" transform="translate(9.5 124.52) rotate(-34.81)"/>
              <rect x="204.62" y="45.63" width="0.54" height="2.72" transform="translate(9.83 125.35) rotate(-34.8)"/>
              <rect x="205.94" y="45.27" width="0.54" height="2.72" transform="translate(10.28 126.05) rotate(-34.81)"/>
              <rect x="207.18" y="44.8" width="0.54" height="2.71" transform="translate(10.77 126.67) rotate(-34.81)"/>
              <rect x="208.36" y="44.25" width="0.54" height="2.68" transform="translate(11.3 127.23) rotate(-34.8)"/>
              <rect x="209.47" y="43.59" width="0.54" height="2.69" transform="translate(11.88 127.76) rotate(-34.81)"/>
              <rect x="210.53" y="42.85" width="0.54" height="2.69" transform="translate(12.49 128.23) rotate(-34.81)"/>
              <rect x="211.56" y="42.05" width="0.54" height="2.72" transform="translate(13.12 128.67) rotate(-34.81)"/>
              <rect x="212.49" y="41.14" width="0.54" height="2.68" transform="translate(13.81 129.03) rotate(-34.8)"/>
              <rect x="213.37" y="40.17" width="0.54" height="2.65" transform="translate(14.54 129.36) rotate(-34.8)"/>
              <rect x="214.16" y="39.05" width="0.54" height="2.63" transform="translate(15.32 129.61) rotate(-34.8)"/>
              <rect x="214.8" y="37.65" width="0.54" height="2.75" transform="matrix(0.82, -0.57, 0.57, 0.82, 16.2, 129.74)"/>
            </g>
          </g>
          <g>
            <path d="M201.91,38l-.53-.09a7.8,7.8,0,0,1,1.83-3.76c2.53-2.9,6.58-3.52,9-1.37l-.35.4c-2.24-1.95-6-1.35-8.29,1.32A7.31,7.31,0,0,0,201.91,38Z" transform="translate(0 0)"/>
            <path d="M201.64,38" transform="translate(0 0)" style="stroke: #000;stroke-miterlimit: 10;stroke-width: 2px"/>
            <polygon points="210.83 33.58 210.8 33.05 212.05 32.96 211.97 31.7 212.5 31.66 212.62 33.45 210.83 33.58"/>
          </g>
          <g>
            <path d="M208.29,51a5.29,5.29,0,0,1-3.54-1.28l.35-.4c2.24,2,6,1.36,8.29-1.32a7.31,7.31,0,0,0,1.7-3.5l.53.09a7.8,7.8,0,0,1-1.83,3.76A7.45,7.45,0,0,1,208.29,51Z" transform="translate(0 0)"/>
            <path d="M215.36,44.55" transform="translate(0 0)" style="stroke: #000;stroke-miterlimit: 10;stroke-width: 2px"/>
            <polygon points="206.17 48.92 206.21 49.45 204.95 49.54 205.03 50.8 204.5 50.83 204.38 49.04 206.17 48.92"/>
          </g>
        </g>
        <circle cx="208.5" cy="41.25" r="13.5" style="fill: none;stroke: #000;stroke-miterlimit: 10"/>
        <circle cx="208.5" cy="41.25" r="11.5" style="fill: none;stroke: #000;stroke-miterlimit: 10"/>
      </g>
      <g>
        <polyline points="278.16 47.74 275.34 47.74 275.34 35.94 273.29 35.94 273.29 47.74 269.43 47.74 269.43 35.94 267.38 35.94 267.38 47.74 263.51 47.74 263.51 35.94 261.46 35.94 261.46 47.74 258.8 47.74 258.8 46.83 260.55 46.83 260.55 35.03 264.42 35.03 264.42 46.83 266.47 46.83 266.47 35.03 270.34 35.03 270.34 46.83 272.38 46.83 272.38 35.03 276.25 35.03 276.25 46.83 278.3 46.83"/>
        <circle cx="268.5" cy="41.25" r="13.5" style="fill: none;stroke: #000;stroke-miterlimit: 10"/>
        <line x1="260.05" y1="32.8" x2="276.95" y2="49.7" style="fill: none;stroke: #000;stroke-miterlimit: 10"/>
        <line x1="276.95" y1="32.8" x2="260.05" y2="49.7" style="fill: none;stroke: #000;stroke-miterlimit: 10"/>
        <circle cx="268.5" cy="41.25" r="11.5" style="fill: none;stroke: #000;stroke-miterlimit: 10"/>
      </g>
      <g>
        <g>
          <polygon points="188.08 35.08 185.63 35.08 185.63 31.9 184.15 31.9 184.15 35.08 181.37 35.08 181.37 31.9 179.89 31.9 179.89 35.08 177.11 35.08 177.11 31.9 175.63 31.9 175.63 35.08 172.85 35.08 172.85 31.9 171.38 31.9 171.38 35.08 168.92 35.08 168.92 34.42 170.72 34.42 170.72 31.25 173.51 31.25 173.51 34.42 174.98 34.42 174.98 31.25 177.76 31.25 177.76 34.42 179.24 34.42 179.24 31.25 182.02 31.25 182.02 34.42 183.5 34.42 183.5 31.25 186.28 31.25 186.28 34.42 188.08 34.42 188.08 35.08"/>
          <polygon points="188.08 40.47 181.37 40.47 181.37 37.3 179.89 37.3 179.89 40.47 172.85 40.47 172.85 37.3 171.38 37.3 171.38 40.47 168.92 40.47 168.92 39.81 170.72 39.81 170.72 36.64 173.51 36.64 173.51 39.81 179.24 39.81 179.24 36.64 182.02 36.64 182.02 39.81 188.08 39.81 188.08 40.47"/>
          <polygon points="188.08 51.25 172.85 51.25 172.85 48.08 171.38 48.08 171.38 51.25 168.92 51.25 168.92 50.59 170.72 50.59 170.72 47.42 173.51 47.42 173.51 50.59 188.08 50.59 188.08 51.25"/>
          <polygon points="188.08 45.86 185.63 45.86 185.63 42.69 184.15 42.69 184.15 45.86 172.85 45.86 172.85 42.69 171.38 42.69 171.38 45.86 168.92 45.86 168.92 45.2 170.72 45.2 170.72 42.03 173.51 42.03 173.51 45.2 183.5 45.2 183.5 42.03 186.28 42.03 186.28 45.2 188.08 45.2 188.08 45.86"/>
        </g>
        <rect x="165" y="27.75" width="27" height="27" style="fill: none;stroke: #000;stroke-miterlimit: 10"/>
        <rect x="167" y="29.75" width="23" height="23" style="fill: none;stroke: #000;stroke-miterlimit: 10"/>
      </g>
    </g>
    <path d="M64.48,55.72V52.9a3.71,3.71,0,0,0-3.71-3.71H58.89a3.71,3.71,0,0,0-3.7,3.71v2.82a3.68,3.68,0,0,0-2.13,3.34v6.16a3.7,3.7,0,0,0,3.69,3.69h6.17a3.7,3.7,0,0,0,3.69-3.69V59.06A3.7,3.7,0,0,0,64.48,55.72Zm-5.59-4.06h1.88A1.24,1.24,0,0,1,62,52.9v2.46H57.66V52.9A1.23,1.23,0,0,1,58.89,51.66ZM61,62.14v2.77a.7.7,0,0,1-.71.7h-.81a.7.7,0,0,1-.71-.7V62.14a2,2,0,1,1,2.23,0Z" transform="translate(0 0)" style="fill: #ffab52;stroke: #000;stroke-miterlimit: 10;stroke-width: 0.75px"/>
  </g>
</svg>
